<svg width="20" height="20" viewBox="0 0 20 20" fill="none" xmlns="http://www.w3.org/2000/svg">
<path d="M14.1665 1.66406H5.83317C3.53317 1.66406 1.6665 3.5224 1.6665 5.81406V10.7974V11.6307C1.6665 13.9224 3.53317 15.7807 5.83317 15.7807H7.08317C7.30817 15.7807 7.60817 15.9307 7.74984 16.1141L8.99984 17.7724C9.54984 18.5057 10.4498 18.5057 10.9998 17.7724L12.2498 16.1141C12.4082 15.9057 12.6582 15.7807 12.9165 15.7807H14.1665C16.4665 15.7807 18.3332 13.9224 18.3332 11.6307V5.81406C18.3332 3.5224 16.4665 1.66406 14.1665 1.66406ZM6.6665 9.9974C6.19984 9.9974 5.83317 9.6224 5.83317 9.16406C5.83317 8.70573 6.20817 8.33073 6.6665 8.33073C7.12484 8.33073 7.49984 8.70573 7.49984 9.16406C7.49984 9.6224 7.13317 9.9974 6.6665 9.9974ZM9.99984 9.9974C9.53317 9.9974 9.1665 9.6224 9.1665 9.16406C9.1665 8.70573 9.5415 8.33073 9.99984 8.33073C10.4582 8.33073 10.8332 8.70573 10.8332 9.16406C10.8332 9.6224 10.4665 9.9974 9.99984 9.9974ZM13.3332 9.9974C12.8665 9.9974 12.4998 9.6224 12.4998 9.16406C12.4998 8.70573 12.8748 8.33073 13.3332 8.33073C13.7915 8.33073 14.1665 8.70573 14.1665 9.16406C14.1665 9.6224 13.7998 9.9974 13.3332 9.9974Z" fill="#B1B2B4"/>
</svg>
