<svg width="20" height="20" viewBox="0 0 20 20" fill="none" xmlns="http://www.w3.org/2000/svg">
<mask id="path-1-inside-1_3858_3950" fill="white">
<path d="M11.406 17.3197L11.8461 16.6327L10.7988 16.0597L10.3579 16.7467L11.406 17.3197ZM8.15375 16.6327L8.59378 17.3197L9.64107 16.7467L9.20186 16.0597L8.15375 16.6327ZM10.3579 16.7467C10.32 16.8028 10.2672 16.8491 10.2046 16.8811C10.142 16.9132 10.0715 16.93 9.99991 16.93C9.9283 16.93 9.85786 16.9132 9.79523 16.8811C9.7326 16.8491 9.67983 16.8028 9.64188 16.7467L8.59378 17.3197C9.22134 18.2999 10.7777 18.2999 11.406 17.3197L10.3588 16.7467H10.3579ZM8.78213 3.05469H11.2177V1.92969H8.78213V3.05469ZM17.5096 8.86719V9.61719H18.7274V8.86719H17.5096ZM2.49024 9.61719V8.86719H1.27246V9.61719H2.49024ZM1.27246 9.61719C1.27246 10.4834 1.27246 11.1607 1.31305 11.7074C1.35365 12.2587 1.43727 12.7177 1.62805 13.1422L2.75329 12.7117C2.63394 12.4477 2.56412 12.1252 2.52759 11.6309C2.49024 11.1314 2.49024 10.4984 2.49024 9.61719H1.27246ZM6.59255 14.6737C5.57286 14.6572 5.03866 14.5972 4.61974 14.4367L4.15455 15.4762C4.80809 15.7267 5.55175 15.7829 6.57144 15.7994L6.59255 14.6737ZM1.62805 13.1422C1.86265 13.6654 2.20652 14.1409 2.64002 14.5413C3.07351 14.9418 3.58815 15.2595 4.15455 15.4762L4.61974 14.4367C3.77434 14.1132 3.10348 13.4927 2.75329 12.7117L1.62805 13.1422ZM17.5096 9.61719C17.5096 10.4984 17.5096 11.1314 17.4722 11.6309C17.4357 12.1252 17.3659 12.4477 17.2473 12.7117L18.3718 13.1422C18.5626 12.7177 18.6462 12.2587 18.6876 11.7074C18.7282 11.1607 18.7274 10.4834 18.7274 9.61719H17.5096ZM13.4284 15.7979C14.4481 15.7822 15.1917 15.7267 15.8453 15.4762L15.3793 14.4367C14.9612 14.5972 14.427 14.6572 13.4081 14.6737L13.4284 15.7987V15.7979ZM17.2473 12.7117C16.8972 13.4927 16.2255 14.1132 15.3801 14.4367L15.8453 15.4762C16.4117 15.2595 16.9263 14.9418 17.3598 14.5413C17.7933 14.1409 18.1372 13.6654 18.3718 13.1422L17.2473 12.7117ZM11.2177 3.05469C12.5581 3.05469 13.5209 3.05469 14.2719 3.12144C15.0139 3.18669 15.4856 3.31119 15.8623 3.52419L16.498 2.56494C15.898 2.22594 15.2177 2.07444 14.3872 2.00094C13.5656 1.92894 12.5345 1.92969 11.2177 1.92969V3.05469ZM18.7274 8.86719C18.7274 7.65069 18.7274 6.69894 18.6494 5.93919C18.5707 5.17194 18.4067 4.54269 18.0397 3.98919L17.0005 4.57644C17.2319 4.92444 17.3667 5.36019 17.4373 6.04644C17.5088 6.73944 17.5096 7.62894 17.5096 8.86719H18.7274ZM15.8615 3.52419C16.326 3.78691 16.7166 4.14749 17.0014 4.57644L18.0397 3.98919C17.6547 3.40867 17.1264 2.92061 16.498 2.56494L15.8623 3.52494L15.8615 3.52419ZM8.78213 1.92969C7.4653 1.92969 6.43505 1.92969 5.61264 2.00094C4.78211 2.07444 4.10097 2.22594 3.50182 2.56494L4.1375 3.52494C4.5142 3.31119 4.98589 3.18669 5.72874 3.12144C6.47889 3.05544 7.44175 3.05469 8.78213 3.05469V1.92969ZM2.49024 8.86719C2.49024 7.62894 2.49024 6.73944 2.5625 6.04569C2.63313 5.36019 2.7679 4.92444 2.99847 4.57644L1.9601 3.98994C1.59314 4.54344 1.42915 5.17194 1.34959 5.93919C1.27246 6.69969 1.27246 7.65069 1.27246 8.86719H2.49024ZM3.50182 2.56494C2.87342 2.92061 2.34511 3.40942 1.9601 3.98994L2.99928 4.57644C3.28354 4.14766 3.67357 3.7871 4.1375 3.52419L3.50182 2.56494ZM9.20104 16.0597C9.03705 15.8024 8.89254 15.5752 8.75128 15.3967C8.60598 15.201 8.41723 15.0361 8.19759 14.9129L7.58545 15.8857C7.62361 15.9067 7.67638 15.9442 7.76731 16.0597C7.86554 16.1842 7.97677 16.3567 8.15375 16.6327L9.20104 16.0597ZM6.57144 15.7979C6.92866 15.8039 7.15354 15.8084 7.32566 15.8257C7.48641 15.8422 7.54892 15.8662 7.58545 15.8857L8.19759 14.9129C7.97028 14.7966 7.71866 14.7265 7.45961 14.7074C7.21768 14.6827 6.92704 14.6789 6.59255 14.6737L6.57144 15.7994V15.7979ZM11.8461 16.6327C12.0231 16.3574 12.1343 16.1842 12.2325 16.0597C12.3234 15.9442 12.3762 15.9067 12.4144 15.8857L11.8022 14.9129C11.5668 15.0404 11.3963 15.2092 11.2485 15.3967C11.1081 15.5752 10.9628 15.8017 10.798 16.0597L11.8461 16.6327ZM13.4081 14.6737C13.0736 14.6789 12.7821 14.6827 12.5402 14.7074C12.2877 14.7337 12.0401 14.7854 11.8022 14.9129L12.4144 15.8857C12.4509 15.8662 12.5134 15.8422 12.6742 15.8257C12.8463 15.8084 13.072 15.8032 13.4292 15.7979L13.4081 14.6729V14.6737Z"/>
</mask>
<path d="M11.406 17.3197L11.8461 16.6327L10.7988 16.0597L10.3579 16.7467L11.406 17.3197ZM8.15375 16.6327L8.59378 17.3197L9.64107 16.7467L9.20186 16.0597L8.15375 16.6327ZM10.3579 16.7467C10.32 16.8028 10.2672 16.8491 10.2046 16.8811C10.142 16.9132 10.0715 16.93 9.99991 16.93C9.9283 16.93 9.85786 16.9132 9.79523 16.8811C9.7326 16.8491 9.67983 16.8028 9.64188 16.7467L8.59378 17.3197C9.22134 18.2999 10.7777 18.2999 11.406 17.3197L10.3588 16.7467H10.3579ZM8.78213 3.05469H11.2177V1.92969H8.78213V3.05469ZM17.5096 8.86719V9.61719H18.7274V8.86719H17.5096ZM2.49024 9.61719V8.86719H1.27246V9.61719H2.49024ZM1.27246 9.61719C1.27246 10.4834 1.27246 11.1607 1.31305 11.7074C1.35365 12.2587 1.43727 12.7177 1.62805 13.1422L2.75329 12.7117C2.63394 12.4477 2.56412 12.1252 2.52759 11.6309C2.49024 11.1314 2.49024 10.4984 2.49024 9.61719H1.27246ZM6.59255 14.6737C5.57286 14.6572 5.03866 14.5972 4.61974 14.4367L4.15455 15.4762C4.80809 15.7267 5.55175 15.7829 6.57144 15.7994L6.59255 14.6737ZM1.62805 13.1422C1.86265 13.6654 2.20652 14.1409 2.64002 14.5413C3.07351 14.9418 3.58815 15.2595 4.15455 15.4762L4.61974 14.4367C3.77434 14.1132 3.10348 13.4927 2.75329 12.7117L1.62805 13.1422ZM17.5096 9.61719C17.5096 10.4984 17.5096 11.1314 17.4722 11.6309C17.4357 12.1252 17.3659 12.4477 17.2473 12.7117L18.3718 13.1422C18.5626 12.7177 18.6462 12.2587 18.6876 11.7074C18.7282 11.1607 18.7274 10.4834 18.7274 9.61719H17.5096ZM13.4284 15.7979C14.4481 15.7822 15.1917 15.7267 15.8453 15.4762L15.3793 14.4367C14.9612 14.5972 14.427 14.6572 13.4081 14.6737L13.4284 15.7987V15.7979ZM17.2473 12.7117C16.8972 13.4927 16.2255 14.1132 15.3801 14.4367L15.8453 15.4762C16.4117 15.2595 16.9263 14.9418 17.3598 14.5413C17.7933 14.1409 18.1372 13.6654 18.3718 13.1422L17.2473 12.7117ZM11.2177 3.05469C12.5581 3.05469 13.5209 3.05469 14.2719 3.12144C15.0139 3.18669 15.4856 3.31119 15.8623 3.52419L16.498 2.56494C15.898 2.22594 15.2177 2.07444 14.3872 2.00094C13.5656 1.92894 12.5345 1.92969 11.2177 1.92969V3.05469ZM18.7274 8.86719C18.7274 7.65069 18.7274 6.69894 18.6494 5.93919C18.5707 5.17194 18.4067 4.54269 18.0397 3.98919L17.0005 4.57644C17.2319 4.92444 17.3667 5.36019 17.4373 6.04644C17.5088 6.73944 17.5096 7.62894 17.5096 8.86719H18.7274ZM15.8615 3.52419C16.326 3.78691 16.7166 4.14749 17.0014 4.57644L18.0397 3.98919C17.6547 3.40867 17.1264 2.92061 16.498 2.56494L15.8623 3.52494L15.8615 3.52419ZM8.78213 1.92969C7.4653 1.92969 6.43505 1.92969 5.61264 2.00094C4.78211 2.07444 4.10097 2.22594 3.50182 2.56494L4.1375 3.52494C4.5142 3.31119 4.98589 3.18669 5.72874 3.12144C6.47889 3.05544 7.44175 3.05469 8.78213 3.05469V1.92969ZM2.49024 8.86719C2.49024 7.62894 2.49024 6.73944 2.5625 6.04569C2.63313 5.36019 2.7679 4.92444 2.99847 4.57644L1.9601 3.98994C1.59314 4.54344 1.42915 5.17194 1.34959 5.93919C1.27246 6.69969 1.27246 7.65069 1.27246 8.86719H2.49024ZM3.50182 2.56494C2.87342 2.92061 2.34511 3.40942 1.9601 3.98994L2.99928 4.57644C3.28354 4.14766 3.67357 3.7871 4.1375 3.52419L3.50182 2.56494ZM9.20104 16.0597C9.03705 15.8024 8.89254 15.5752 8.75128 15.3967C8.60598 15.201 8.41723 15.0361 8.19759 14.9129L7.58545 15.8857C7.62361 15.9067 7.67638 15.9442 7.76731 16.0597C7.86554 16.1842 7.97677 16.3567 8.15375 16.6327L9.20104 16.0597ZM6.57144 15.7979C6.92866 15.8039 7.15354 15.8084 7.32566 15.8257C7.48641 15.8422 7.54892 15.8662 7.58545 15.8857L8.19759 14.9129C7.97028 14.7966 7.71866 14.7265 7.45961 14.7074C7.21768 14.6827 6.92704 14.6789 6.59255 14.6737L6.57144 15.7994V15.7979ZM11.8461 16.6327C12.0231 16.3574 12.1343 16.1842 12.2325 16.0597C12.3234 15.9442 12.3762 15.9067 12.4144 15.8857L11.8022 14.9129C11.5668 15.0404 11.3963 15.2092 11.2485 15.3967C11.1081 15.5752 10.9628 15.8017 10.798 16.0597L11.8461 16.6327ZM13.4081 14.6737C13.0736 14.6789 12.7821 14.6827 12.5402 14.7074C12.2877 14.7337 12.0401 14.7854 11.8022 14.9129L12.4144 15.8857C12.4509 15.8662 12.5134 15.8422 12.6742 15.8257C12.8463 15.8084 13.072 15.8032 13.4292 15.7979L13.4081 14.6729V14.6737Z" fill="#8B8D90"/>
<path d="M4.15455 15.4762L3.69817 15.2719L4.6108 15.6807L4.15455 15.4762ZM18.3718 13.1422L18.1931 13.6092L18.5505 12.6752L18.3718 13.1422ZM8.19759 14.9129L8.62086 15.1791L7.77441 14.6466L8.19759 14.9129ZM10.8824 17.0332L10.6424 17.4718L11.1661 17.7583L11.406 17.3197L11.646 16.881L11.1224 16.5945L10.8824 17.0332ZM11.3224 16.3462L11.5621 15.9074L11.0377 15.6209L10.798 16.0597L10.5583 16.4985L11.0827 16.785L11.3224 16.3462ZM8.6774 16.3462L8.43741 15.9075L7.91376 16.194L8.15375 16.6327L8.39374 17.0713L8.91739 16.7848L8.6774 16.3462ZM9.11742 17.0332L9.35713 17.472L9.88159 17.1855L9.64188 16.7467L9.40218 16.3079L8.87772 16.5944L9.11742 17.0332ZM2.19067 12.9269L2.36933 13.3939L2.93195 13.1787L2.75329 12.7117L2.57462 12.2447L2.01201 12.4599L2.19067 12.9269ZM6.582 15.2354L6.08209 15.2261L6.07153 15.7886L6.57144 15.7979L7.07136 15.8073L7.08191 15.2448L6.582 15.2354ZM4.38755 14.9564L3.9313 14.7519L3.6983 15.2717L4.15455 15.4762L4.6108 15.6807L4.8438 15.161L4.38755 14.9564ZM17.8092 12.9269L17.6305 13.3939L18.1931 13.6092L18.3718 13.1422L18.5504 12.6752L17.9878 12.4599L17.8092 12.9269ZM13.4178 15.2354L13.9177 15.2268L13.908 14.6643L13.4081 14.6729L12.9082 14.6816L12.9179 15.2441L13.4178 15.2354ZM15.6123 14.9564L15.156 15.161L15.389 15.6807L15.8453 15.4762L16.3015 15.2717L16.0685 14.7519L15.6123 14.9564ZM16.1806 3.04494L15.7638 2.76864L15.4456 3.24864L15.8623 3.52494L16.279 3.80123L16.5973 3.32123L16.1806 3.04494ZM17.5201 4.28244L17.7659 4.71787L18.2855 4.42462L18.0397 3.98919L17.794 3.55375L17.2744 3.847L17.5201 4.28244ZM3.82006 3.04569L4.23679 2.76939L3.91854 2.28939L3.50182 2.56569L3.08509 2.84198L3.40334 3.32198L3.82006 3.04569ZM2.47969 4.28319L2.72545 3.84775L2.20586 3.5545L1.9601 3.98994L1.71435 4.42537L2.23394 4.71862L2.47969 4.28319ZM7.89152 15.3997L8.3148 15.6658L8.62086 15.1791L8.19759 14.9129L7.77432 14.6468L7.46825 15.1335L7.89152 15.3997ZM11.2177 3.05469H11.7177V1.92969H11.2177H10.7177V3.05469H11.2177ZM8.78213 1.92969H8.28213V3.05469H8.78213H9.28213V1.92969H8.78213ZM17.5096 9.61719V10.1172H18.7274V9.61719V9.11719H17.5096V9.61719ZM18.7274 8.86719V8.36719H17.5096V8.86719V9.36719H18.7274V8.86719ZM2.49024 8.86719V8.36719H1.27246V8.86719V9.36719H2.49024V8.86719ZM1.27246 9.61719V10.1172H2.49024V9.61719V9.11719H1.27246V9.61719ZM1.62805 13.1422L1.80672 13.6092L2.93195 13.1787L2.75329 12.7117L2.57462 12.2447L1.44939 12.6752L1.62805 13.1422ZM4.61974 14.4367L4.16336 14.2324L3.69817 15.2719L4.15455 15.4762L4.61093 15.6804L5.07613 14.6409L4.61974 14.4367ZM6.57144 15.7994L7.07136 15.8088L7.09246 14.6831L6.59255 14.6737L6.09264 14.6643L6.07153 15.7901L6.57144 15.7994ZM17.2473 12.7117L17.0686 13.1786L18.193 13.6091L18.3718 13.1422L18.5505 12.6752L17.4261 12.2447L17.2473 12.7117ZM8.19759 14.9129L7.77441 14.6466L7.16227 15.6194L7.58545 15.8857L8.00863 16.152L8.62077 15.1792L8.19759 14.9129ZM12.4144 15.8857L12.8376 15.6194L12.2254 14.6466L11.8022 14.9129L11.379 15.1792L11.9912 16.152L12.4144 15.8857ZM11.406 17.3197L12.2479 17.8594L12.2481 17.859L11.406 17.3197ZM10.798 16.0597L9.95523 15.5214L9.37891 16.4236L10.3183 16.9371L10.798 16.0597ZM9.64188 16.7467L10.4702 16.1865L9.96051 15.4328L9.16219 15.8693L9.64188 16.7467ZM2.75329 12.7117L3.66576 12.3025L3.6645 12.2998L2.75329 12.7117ZM6.57144 15.7979L6.58824 14.7981L5.57144 14.781V15.7979H6.57144ZM4.15455 15.4762L4.51245 14.5424L4.51192 14.5422L4.15455 15.4762ZM18.3718 13.1422L17.4597 12.7323L17.4593 12.7331L18.3718 13.1422ZM13.4081 14.6729L14.4079 14.6542L12.4081 14.6729H13.4081ZM15.8623 3.52494L15.1842 4.25988L16.0475 5.05649L16.6961 4.07704L15.8623 3.52494ZM18.0397 3.98919L18.8732 3.43662L18.8731 3.43648L18.0397 3.98919ZM1.9601 3.98994L1.12673 3.43723L1.12664 3.43737L1.9601 3.98994ZM8.19759 14.9129L8.68654 14.0406L8.67004 14.0314L8.65319 14.0228L8.19759 14.9129ZM10.7988 16.0597L11.2788 15.1824L10.4607 14.7348L9.95715 15.5196L10.7988 16.0597ZM9.64107 16.7467L10.1211 17.624L11.0603 17.1101L10.4836 16.208L9.64107 16.7467ZM9.20186 16.0597L10.0444 15.521L9.54144 14.7344L8.72216 15.1823L9.20186 16.0597ZM10.3588 16.7467L10.8387 15.8694L10.6144 15.7467H10.3588V16.7467ZM1.31305 11.7074L2.31035 11.634L2.31031 11.6334L1.31305 11.7074ZM1.62805 13.1422L2.54054 12.7331L2.54017 12.7323L1.62805 13.1422ZM2.52759 11.6309L3.52487 11.5572L3.52481 11.5564L2.52759 11.6309ZM6.59255 14.6737L6.57637 15.6736L6.57686 15.6736L6.59255 14.6737ZM4.61974 14.4367L4.97751 13.5029L4.97714 13.5027L4.61974 14.4367ZM6.57144 15.7994L6.55526 16.7993L7.57144 16.8157V15.7994H6.57144ZM17.4722 11.6309L16.475 11.5564L16.475 11.5572L17.4722 11.6309ZM17.2473 12.7117L16.3351 12.3021L16.3349 12.3025L17.2473 12.7117ZM18.6876 11.7074L19.6848 11.7823L19.6848 11.7815L18.6876 11.7074ZM13.4284 15.7979L13.4129 14.7981L12.4284 14.8133V15.7979H13.4284ZM15.3793 14.4367L16.2918 14.0276L15.9046 13.1639L15.0209 13.5031L15.3793 14.4367ZM13.4284 15.7987L12.4285 15.8167L14.4284 15.7987H13.4284ZM15.3801 14.4367L15.0227 13.5027L14.0356 13.8805L14.4673 14.8452L15.3801 14.4367ZM14.2719 3.12144L14.1834 4.11751L14.1843 4.11759L14.2719 3.12144ZM15.8623 3.52419L15.3701 4.39467L16.1812 4.85328L16.6959 4.07659L15.8623 3.52419ZM16.498 2.56494L16.9906 1.69467L16.9899 1.69431L16.498 2.56494ZM14.3872 2.00094L14.4753 1.00483L14.4745 1.00476L14.3872 2.00094ZM18.6494 5.93919L19.6442 5.83714L19.6442 5.83709L18.6494 5.93919ZM17.0005 4.57644L16.5086 3.70584L15.5725 4.23479L16.1678 5.13011L17.0005 4.57644ZM17.4373 6.04644L16.4426 6.14882L16.4426 6.14899L17.4373 6.04644ZM15.8615 3.52419L16.3538 2.65376L15.1834 4.25913L15.8615 3.52419ZM17.0014 4.57644L16.1682 5.12947L16.6831 5.90525L17.4936 5.44688L17.0014 4.57644ZM5.61264 2.00094L5.52633 1.00467L5.52449 1.00483L5.61264 2.00094ZM3.50182 2.56494L3.00937 1.69459L3.00924 1.69467L3.50182 2.56494ZM4.1375 3.52494L3.30372 4.07704L3.81911 4.85537L4.63101 4.39468L4.1375 3.52494ZM5.72874 3.12144L5.81624 4.1176L5.81638 4.11759L5.72874 3.12144ZM2.5625 6.04569L3.55712 6.14928L3.55723 6.14818L2.5625 6.04569ZM2.99847 4.57644L3.8321 5.12876L4.42509 4.23375L3.49027 3.70573L2.99847 4.57644ZM1.34959 5.93919L0.354918 5.83604L0.35469 5.83829L1.34959 5.93919ZM2.99928 4.57644L2.50777 5.44731L3.31841 5.90483L3.83275 5.129L2.99928 4.57644ZM4.1375 3.52419L4.63053 4.3942L5.56337 3.86556L4.97108 2.97179L4.1375 3.52419ZM9.20104 16.0597L9.68103 16.937L10.619 16.4238L10.0443 15.5221L9.20104 16.0597ZM8.75128 15.3967L7.94834 15.9927L7.95754 16.0051L7.96712 16.0173L8.75128 15.3967ZM7.58545 15.8857L8.06765 15.0095L8.05633 15.0035L7.58545 15.8857ZM7.76731 16.0597L6.98158 16.6783L6.98226 16.6791L7.76731 16.0597ZM7.32566 15.8257L7.42777 14.8309L7.42538 14.8307L7.32566 15.8257ZM7.45961 14.7074L7.35784 15.7022L7.37196 15.7037L7.38611 15.7047L7.45961 14.7074ZM12.2325 16.0597L13.0176 16.6791L13.0182 16.6783L12.2325 16.0597ZM12.4144 15.8857L11.9435 15.0034L11.9322 15.0096L12.4144 15.8857ZM11.8022 14.9129L11.3298 14.0316L11.326 14.0336L11.8022 14.9129ZM11.2485 15.3967L10.4631 14.7777L10.4627 14.7783L11.2485 15.3967ZM12.5402 14.7074L12.4384 13.7126L12.4368 13.7128L12.5402 14.7074ZM12.6742 15.8257L12.5744 14.8307L12.5721 14.8309L12.6742 15.8257ZM13.4292 15.7979L13.4439 16.7978L14.4479 16.7831L14.429 15.7792L13.4292 15.7979ZM11.406 17.3197L12.2481 17.859L12.6881 17.172L11.8461 16.6327L11.004 16.0933L10.564 16.7803L11.406 17.3197ZM11.8461 16.6327L12.3261 15.7554L11.2788 15.1824L10.7988 16.0597L10.3188 16.937L11.3661 17.51L11.8461 16.6327ZM10.7988 16.0597L9.95715 15.5196L9.51631 16.2066L10.3579 16.7467L11.1996 17.2867L11.6404 16.5997L10.7988 16.0597ZM10.3579 16.7467L9.87824 17.6241L10.9264 18.1971L11.406 17.3197L11.8857 16.4423L10.8376 15.8693L10.3579 16.7467ZM8.15375 16.6327L7.31167 17.172L7.7517 17.859L8.59378 17.3197L9.43586 16.7803L8.99583 16.0933L8.15375 16.6327ZM8.59378 17.3197L9.07376 18.197L10.1211 17.624L9.64107 16.7467L9.16109 15.8694L8.1138 16.4424L8.59378 17.3197ZM9.64107 16.7467L10.4836 16.208L10.0444 15.521L9.20186 16.0597L8.35933 16.5983L8.79854 17.2853L9.64107 16.7467ZM9.20186 16.0597L8.72216 15.1823L7.67406 15.7553L8.15375 16.6327L8.63344 17.5101L9.68155 16.9371L9.20186 16.0597ZM10.3579 16.7467L9.5296 16.1865C9.5898 16.0974 9.66749 16.0327 9.74878 15.9911L10.2046 16.8811L10.6604 17.7712C10.867 17.6654 11.0502 17.5081 11.1863 17.3069L10.3579 16.7467ZM10.2046 16.8811L9.74878 15.9911C9.82979 15.9496 9.91593 15.93 9.99991 15.93V16.93V17.93C10.2271 17.93 10.4541 17.8768 10.6604 17.7712L10.2046 16.8811ZM9.99991 16.93V15.93C10.0839 15.93 10.17 15.9496 10.251 15.9911L9.79523 16.8811L9.33942 17.7712C9.5457 17.8768 9.77271 17.93 9.99991 17.93V16.93ZM9.79523 16.8811L10.251 15.9911C10.3323 16.0327 10.41 16.0974 10.4702 16.1865L9.64188 16.7467L8.81354 17.3069C8.94964 17.5081 9.13287 17.6654 9.33942 17.7712L9.79523 16.8811ZM9.64188 16.7467L9.16219 15.8693L8.11408 16.4423L8.59378 17.3197L9.07347 18.1971L10.1216 17.6241L9.64188 16.7467ZM8.59378 17.3197L7.75158 17.8589C8.77277 19.4539 11.2263 19.453 12.2479 17.8594L11.406 17.3197L10.5642 16.78C10.4617 16.9398 10.26 17.0549 9.99961 17.0549C9.73919 17.0549 9.53799 16.9399 9.43597 16.7805L8.59378 17.3197ZM11.406 17.3197L11.886 16.4424L10.8387 15.8694L10.3588 16.7467L9.87877 17.624L10.9261 18.197L11.406 17.3197ZM10.3588 16.7467V15.7467H10.3579V16.7467V17.7467H10.3588V16.7467ZM8.78213 3.05469V4.05469H11.2177V3.05469V2.05469H8.78213V3.05469ZM11.2177 1.92969V0.929688H8.78213V1.92969V2.92969H11.2177V1.92969ZM17.5096 8.86719H16.5096V9.61719H17.5096H18.5096V8.86719H17.5096ZM18.7274 9.61719H19.7274V8.86719H18.7274H17.7274V9.61719H18.7274ZM2.49024 9.61719H3.49024V8.86719H2.49024H1.49024V9.61719H2.49024ZM1.27246 8.86719H0.272461V9.61719H1.27246H2.27246V8.86719H1.27246ZM1.27246 9.61719H0.272461C0.272461 10.4693 0.271833 11.1893 0.315798 11.7815L1.31305 11.7074L2.31031 11.6334C2.27309 11.1321 2.27246 10.4976 2.27246 9.61719H1.27246ZM1.31305 11.7074L0.315754 11.7809C0.360423 12.3875 0.457479 12.977 0.71594 13.5521L1.62805 13.1422L2.54017 12.7323C2.41706 12.4583 2.34687 12.1299 2.31035 11.634L1.31305 11.7074ZM2.75329 12.7117L3.6645 12.2998C3.61393 12.1879 3.5574 11.9973 3.52487 11.5572L2.52759 11.6309L1.53031 11.7047C1.57085 12.253 1.65396 12.7075 1.84207 13.1236L2.75329 12.7117ZM2.52759 11.6309L3.52481 11.5564C3.49091 11.103 3.49024 10.5141 3.49024 9.61719H2.49024H1.49024C1.49024 10.4827 1.48958 11.1599 1.53037 11.7055L2.52759 11.6309ZM6.59255 14.6737L6.60873 13.6738C5.58653 13.6573 5.21407 13.5935 4.97751 13.5029L4.61974 14.4367L4.26197 15.3705C4.86325 15.6009 5.5592 15.6571 6.57637 15.6736L6.59255 14.6737ZM4.15455 15.4762L3.79664 16.4099C4.63147 16.7299 5.53515 16.7828 6.55526 16.7993L6.57144 15.7994L6.58762 14.7996C5.56835 14.7831 4.98471 14.7234 4.51245 14.5424L4.15455 15.4762ZM1.62805 13.1422L0.715571 13.5513C1.00701 14.2013 1.43178 14.7866 1.96144 15.2759L2.64002 14.5413L3.31859 13.8068C2.98126 13.4952 2.71829 13.1295 2.54054 12.7331L1.62805 13.1422ZM2.64002 14.5413L1.96144 15.2759C2.49095 15.765 3.11535 16.1493 3.79718 16.4102L4.15455 15.4762L4.51192 14.5422C4.06095 14.3697 3.65608 14.1186 3.31859 13.8068L2.64002 14.5413ZM4.61974 14.4367L4.97714 13.5027C4.36356 13.2679 3.90111 12.8274 3.66575 12.3025L2.75329 12.7117L1.84082 13.1208C2.30584 14.1579 3.18512 14.9584 4.26235 15.3706L4.61974 14.4367ZM17.5096 9.61719H16.5096C16.5096 10.5141 16.5089 11.103 16.475 11.5564L17.4722 11.6309L18.4694 11.7055C18.5102 11.1599 18.5096 10.4827 18.5096 9.61719H17.5096ZM17.4722 11.6309L16.475 11.5572C16.4424 11.997 16.3859 12.1889 16.3351 12.3021L17.2473 12.7117L18.1596 13.1213C18.3458 12.7065 18.429 12.2534 18.4695 11.7047L17.4722 11.6309ZM18.3718 13.1422L19.2839 13.5521C19.5423 12.9772 19.6393 12.3879 19.6848 11.7823L18.6876 11.7074L17.6904 11.6325C17.6531 12.1295 17.5828 12.4582 17.4597 12.7323L18.3718 13.1422ZM18.6876 11.7074L19.6848 11.7815C19.7288 11.189 19.7274 10.468 19.7274 9.61719H18.7274H17.7274C17.7274 10.4989 17.7275 11.1324 17.6903 11.6334L18.6876 11.7074ZM13.4284 15.7979L13.4438 16.7978C14.4636 16.7821 15.3678 16.7301 16.2032 16.4099L15.8453 15.4762L15.4874 14.5424C15.0156 14.7232 14.4326 14.7823 13.4129 14.7981L13.4284 15.7979ZM15.8453 15.4762L16.7578 15.0671L16.2918 14.0276L15.3793 14.4367L14.4668 14.8458L14.9328 15.8853L15.8453 15.4762ZM15.3793 14.4367L15.0209 13.5031C14.7855 13.5935 14.4135 13.6573 13.3919 13.6738L13.4081 14.6737L13.4243 15.6736C14.4404 15.6571 15.1368 15.6009 15.7376 15.3703L15.3793 14.4367ZM13.4081 14.6737L12.4082 14.6917L12.4285 15.8167L13.4284 15.7987L14.4282 15.7806L14.4079 14.6556L13.4081 14.6737ZM13.4284 15.7987H14.4284V15.7979H13.4284H12.4284V15.7987H13.4284ZM17.2473 12.7117L16.3349 12.3025C16.0997 12.827 15.6367 13.2678 15.0227 13.5027L15.3801 14.4367L15.7375 15.3706C16.8143 14.9586 17.6946 14.1583 18.1598 13.1208L17.2473 12.7117ZM15.3801 14.4367L14.4673 14.8452L14.9325 15.8847L15.8453 15.4762L16.758 15.0677L16.2928 14.0282L15.3801 14.4367ZM15.8453 15.4762L16.2026 16.4102C16.8845 16.1493 17.5089 15.765 18.0384 15.2759L17.3598 14.5413L16.6812 13.8068C16.3437 14.1186 15.9389 14.3697 15.4879 14.5422L15.8453 15.4762ZM17.3598 14.5413L18.0384 15.2759C18.568 14.7866 18.9928 14.2013 19.2843 13.5513L18.3718 13.1422L17.4593 12.7331C17.2815 13.1295 17.0186 13.4952 16.6812 13.8068L17.3598 14.5413ZM11.2177 3.05469V4.05469C12.577 4.05469 13.4872 4.05563 14.1834 4.11751L14.2719 3.12144L14.3604 2.12536C13.5547 2.05375 12.5391 2.05469 11.2177 2.05469V3.05469ZM14.2719 3.12144L14.1843 4.11759C14.8612 4.17712 15.171 4.2821 15.3701 4.39467L15.8623 3.52419L16.3545 2.65371C15.8002 2.34027 15.1667 2.19626 14.3595 2.12528L14.2719 3.12144ZM15.8623 3.52419L16.6959 4.07659L17.3316 3.11734L16.498 2.56494L15.6644 2.01254L15.0287 2.97179L15.8623 3.52419ZM16.498 2.56494L16.9899 1.69431C16.2131 1.25534 15.3715 1.08414 14.4753 1.00483L14.3872 2.00094L14.299 2.99704C15.0639 3.06473 15.583 3.19654 16.0061 3.43557L16.498 2.56494ZM14.3872 2.00094L14.4745 1.00476C13.5991 0.928041 12.5167 0.929688 11.2177 0.929688V1.92969V2.92969C12.5524 2.92969 13.5321 2.92983 14.2999 2.99712L14.3872 2.00094ZM18.7274 8.86719H19.7274C19.7274 7.67058 19.7286 6.6595 19.6442 5.83714L18.6494 5.93919L17.6546 6.04124C17.7262 6.73838 17.7274 7.63079 17.7274 8.86719H18.7274ZM18.6494 5.93919L19.6442 5.83709C19.5571 4.98805 19.3651 4.17861 18.8732 3.43662L18.0397 3.98919L17.2063 4.54176C17.4482 4.90677 17.5843 5.35582 17.6546 6.04129L18.6494 5.93919ZM18.0397 3.98919L17.5477 3.11859L16.5086 3.70584L17.0005 4.57644L17.4925 5.44704L18.5317 4.85979L18.0397 3.98919ZM17.0005 4.57644L16.1678 5.13011C16.2733 5.2887 16.3803 5.54328 16.4426 6.14882L17.4373 6.04644L18.4321 5.94405C18.3531 5.17709 18.1906 4.56018 17.8333 4.02277L17.0005 4.57644ZM17.4373 6.04644L16.4426 6.14899C16.5075 6.77882 16.5096 7.60788 16.5096 8.86719H17.5096H18.5096C18.5096 7.64999 18.51 6.70006 18.432 5.94389L17.4373 6.04644ZM15.8615 3.52419L15.3692 4.39462C15.7019 4.58277 15.9738 4.83655 16.1682 5.12947L17.0014 4.57644L17.8345 4.02341C17.4595 3.45844 16.9502 2.99105 16.3538 2.65376L15.8615 3.52419ZM17.0014 4.57644L17.4936 5.44688L18.532 4.85963L18.0397 3.98919L17.5474 3.11875L16.5091 3.706L17.0014 4.57644ZM18.0397 3.98919L18.8731 3.43648C18.3978 2.71989 17.7508 2.12496 16.9906 1.69467L16.498 2.56494L16.0054 3.43521C16.502 3.71626 16.9116 4.09746 17.2063 4.54189L18.0397 3.98919ZM16.498 2.56494L15.6642 2.01284L15.0285 2.97284L15.8623 3.52494L16.6961 4.07704L17.3318 3.11704L16.498 2.56494ZM15.8623 3.52494L16.5405 2.79L16.5396 2.78925L15.8615 3.52419L15.1834 4.25913L15.1842 4.25988L15.8623 3.52494ZM8.78213 1.92969V0.929688C7.48214 0.929688 6.40175 0.928828 5.52633 1.00467L5.61264 2.00094L5.69895 2.99721C6.46836 2.93055 7.44845 2.92969 8.78213 2.92969V1.92969ZM5.61264 2.00094L5.52449 1.00483C4.62871 1.08411 3.7859 1.25523 3.00937 1.69459L3.50182 2.56494L3.99426 3.43528C4.41603 3.19665 4.93552 3.06477 5.7008 2.99704L5.61264 2.00094ZM3.50182 2.56494L2.66804 3.11704L3.30372 4.07704L4.1375 3.52494L4.97128 2.97284L4.33559 2.01284L3.50182 2.56494ZM4.1375 3.52494L4.63101 4.39468C4.82932 4.28215 5.13831 4.17715 5.81624 4.1176L5.72874 3.12144L5.64124 2.12527C4.83347 2.19623 4.19908 2.34023 3.64399 2.6552L4.1375 3.52494ZM5.72874 3.12144L5.81638 4.11759C6.5125 4.05634 7.42374 4.05469 8.78213 4.05469V3.05469V2.05469C7.45976 2.05469 6.44529 2.05453 5.64109 2.12529L5.72874 3.12144ZM2.49024 8.86719H3.49024C3.49024 7.60675 3.49153 6.77901 3.55712 6.14928L2.5625 6.04569L1.56788 5.9421C1.48896 6.69987 1.49024 7.65112 1.49024 8.86719H2.49024ZM2.5625 6.04569L3.55723 6.14818C3.61953 5.54358 3.72653 5.28809 3.8321 5.12876L2.99847 4.57644L2.16484 4.02412C1.80927 4.56078 1.64673 5.17679 1.56777 5.94319L2.5625 6.04569ZM2.99847 4.57644L3.49027 3.70573L2.4519 3.11923L1.9601 3.98994L1.4683 4.86064L2.50666 5.44714L2.99847 4.57644ZM1.9601 3.98994L1.12664 3.43737C0.634878 4.17911 0.442913 4.9875 0.354921 5.83604L1.34959 5.93919L2.34425 6.04233C2.41539 5.35638 2.55141 4.90777 2.79357 4.54251L1.9601 3.98994ZM1.34959 5.93919L0.35469 5.83829C0.271287 6.66069 0.272461 7.67031 0.272461 8.86719H1.27246H2.27246C2.27246 7.63107 2.27364 6.73869 2.34448 6.04009L1.34959 5.93919ZM3.50182 2.56494L3.00924 1.69467C2.24854 2.12523 1.60169 2.72108 1.12673 3.43723L1.9601 3.98994L2.79348 4.54264C3.08853 4.09777 3.49831 3.71599 3.99439 3.43521L3.50182 2.56494ZM1.9601 3.98994L1.46859 4.86081L2.50777 5.44731L2.99928 4.57644L3.49079 3.70557L2.45161 3.11907L1.9601 3.98994ZM2.99928 4.57644L3.83275 5.129C4.02686 4.83621 4.2983 4.58247 4.63053 4.3942L4.1375 3.52419L3.64447 2.65418C3.04883 2.99172 2.54022 3.45912 2.16581 4.02388L2.99928 4.57644ZM4.1375 3.52419L4.97108 2.97179L4.3354 2.01254L3.50182 2.56494L2.66824 3.11734L3.30392 4.07659L4.1375 3.52419ZM9.20104 16.0597L10.0443 15.5221C9.88975 15.2797 9.71529 15.0034 9.53543 14.7761L8.75128 15.3967L7.96712 16.0173C8.06979 16.147 8.18435 16.3251 8.35781 16.5972L9.20104 16.0597ZM8.75128 15.3967L9.55422 14.8006C9.3221 14.488 9.02499 14.2303 8.68654 14.0406L8.19759 14.9129L7.70864 15.7852C7.80947 15.8418 7.88985 15.914 7.94834 15.9927L8.75128 15.3967ZM7.58545 15.8857L7.10329 16.7618C7.08618 16.7524 7.06439 16.7393 7.04092 16.7228C7.01815 16.7067 7.00014 16.6918 6.98704 16.68C6.96281 16.6582 6.9603 16.6512 6.98158 16.6783L7.76731 16.0597L8.55304 15.4411C8.40642 15.2549 8.25642 15.1135 8.06761 15.0096L7.58545 15.8857ZM7.76731 16.0597L6.98226 16.6791C7.04293 16.756 7.12377 16.879 7.31196 17.1725L8.15375 16.6327L8.99554 16.0929C8.82976 15.8344 8.68815 15.6124 8.55236 15.4403L7.76731 16.0597ZM8.15375 16.6327L8.63373 17.51L9.68103 16.937L9.20104 16.0597L8.72106 15.1824L7.67377 15.7554L8.15375 16.6327ZM6.57144 15.7979L6.55465 16.7978C6.92844 16.8041 7.10481 16.8086 7.22593 16.8207L7.32566 15.8257L7.42538 14.8307C7.20228 14.8083 6.92888 14.8038 6.58824 14.7981L6.57144 15.7979ZM7.32566 15.8257L7.22355 16.8205C7.27092 16.8253 7.27353 16.8284 7.24994 16.8222C7.23667 16.8188 7.21586 16.8126 7.18983 16.8025C7.16251 16.7919 7.137 16.7799 7.11457 16.7679L7.58545 15.8857L8.05633 15.0035C7.86101 14.8992 7.65584 14.8543 7.42777 14.8309L7.32566 15.8257ZM8.19759 14.9129L8.65319 14.0228C8.30487 13.8445 7.92305 13.7389 7.53312 13.7101L7.45961 14.7074L7.38611 15.7047C7.51426 15.7142 7.63569 15.7487 7.74199 15.8031L8.19759 14.9129ZM7.45961 14.7074L7.56138 13.7126C7.2665 13.6825 6.9254 13.6788 6.60825 13.6738L6.59255 14.6737L6.57686 15.6736C6.92868 15.6791 7.16886 15.6829 7.35784 15.7022L7.45961 14.7074ZM6.57144 15.7994H7.57144V15.7979H6.57144H5.57144V15.7994H6.57144ZM11.8461 16.6327L12.6872 17.1735C12.877 16.8783 12.9569 16.7561 13.0176 16.6791L12.2325 16.0597L11.4475 15.4403C11.3117 15.6123 11.1691 15.8365 11.0049 16.0918L11.8461 16.6327ZM12.2325 16.0597L13.0182 16.6783C13.0395 16.6512 13.037 16.6582 13.0128 16.68C12.9997 16.6918 12.9817 16.7067 12.9589 16.7228C12.9354 16.7393 12.9136 16.7524 12.8965 16.7618L12.4144 15.8857L11.9322 15.0096C11.7434 15.1135 11.5934 15.2549 11.4468 15.4411L12.2325 16.0597ZM11.8022 14.9129L11.326 14.0336C10.934 14.2459 10.6646 14.522 10.4631 14.7777L11.2485 15.3967L12.034 16.0156C12.128 15.8963 12.1996 15.835 12.2784 15.7923L11.8022 14.9129ZM11.2485 15.3967L10.4627 14.7783C10.2857 15.0032 10.1126 15.275 9.95523 15.5214L10.798 16.0597L11.6407 16.598C11.8129 16.3284 11.9305 16.1471 12.0344 16.0151L11.2485 15.3967ZM10.798 16.0597L10.3183 16.9371L11.3664 17.5101L11.8461 16.6327L12.3258 15.7553L11.2777 15.1823L10.798 16.0597ZM13.4081 14.6737L13.3924 13.6738C13.0753 13.6788 12.7333 13.6825 12.4384 13.7126L12.5402 14.7074L12.642 15.7022C12.8309 15.6829 13.0719 15.6791 13.4238 15.6736L13.4081 14.6737ZM12.5402 14.7074L12.4368 13.7128C12.1187 13.7459 11.7276 13.8184 11.3298 14.0316L11.8022 14.9129L12.2746 15.7943C12.3527 15.7525 12.4567 15.7215 12.6436 15.7021L12.5402 14.7074ZM12.4144 15.8857L12.8852 16.7679C12.8628 16.7799 12.8373 16.7919 12.81 16.8025C12.784 16.8126 12.7632 16.8188 12.7499 16.8222C12.7263 16.8284 12.7289 16.8253 12.7763 16.8205L12.6742 15.8257L12.5721 14.8309C12.344 14.8543 12.1388 14.8992 11.9435 15.0035L12.4144 15.8857ZM12.6742 15.8257L12.7739 16.8207C12.895 16.8086 13.0747 16.8033 13.4439 16.7978L13.4292 15.7979L13.4145 14.798C13.0692 14.8031 12.7975 14.8083 12.5744 14.8307L12.6742 15.8257ZM13.4292 15.7979L14.429 15.7792L14.4079 14.6542L13.4081 14.6729L12.4083 14.6917L12.4294 15.8167L13.4292 15.7979ZM13.4081 14.6729H12.4081V14.6737H13.4081H14.4081V14.6729H13.4081Z" fill="#8B8D90" mask="url(#path-1-inside-1_3858_3950)"/>
<path d="M6.75684 9.24219H6.76414M9.99695 9.24219H10.0043M13.2444 9.24219H13.2517" stroke="#8B8D90" stroke-width="2" stroke-linecap="round" stroke-linejoin="round"/>
</svg>
